<svg width="36" height="11" viewBox="0 0 36 11" fill="none" xmlns="http://www.w3.org/2000/svg">
<path d="M8.271 0.757812V10H6.67773L2.53271 3.37939V10H0.939453V0.757812H2.53271L6.69043 7.39111V0.757812H8.271ZM16.2183 8.73682V10H11.3115V8.73682H16.2183ZM11.7622 0.757812V10H10.1689V0.757812H11.7622ZM15.5771 4.61719V5.86133H11.3115V4.61719H15.5771ZM16.1865 0.757812V2.02734H11.3115V0.757812H16.1865ZM19.8364 7.92432L21.6772 0.757812H22.6421L22.5342 2.60498L20.5664 10H19.5635L19.8364 7.92432ZM18.459 0.757812L19.9507 7.86719L20.084 10H19.0176L16.8784 0.757812H18.459ZM24.7305 7.84814L26.2031 0.757812H27.79L25.6509 10H24.5845L24.7305 7.84814ZM23.0166 0.757812L24.8384 7.94336L25.105 10H24.1021L22.166 2.60498L22.0645 0.757812H23.0166ZM33.833 7.61963C33.833 7.4292 33.8034 7.25993 33.7441 7.11182C33.6891 6.9637 33.5897 6.82829 33.4458 6.70557C33.3019 6.58285 33.0988 6.46436 32.8364 6.3501C32.5783 6.23161 32.2482 6.111 31.8462 5.98828C31.4061 5.85286 30.9998 5.70264 30.6274 5.5376C30.2593 5.36833 29.9377 5.17367 29.6626 4.95361C29.3875 4.72933 29.1738 4.47331 29.0215 4.18555C28.8691 3.89355 28.793 3.55713 28.793 3.17627C28.793 2.79964 28.8713 2.45687 29.0278 2.14795C29.1886 1.83903 29.415 1.57243 29.707 1.34814C30.0033 1.11963 30.3524 0.94401 30.7544 0.821289C31.1564 0.694336 31.6007 0.630859 32.0874 0.630859C32.7729 0.630859 33.3633 0.757812 33.8584 1.01172C34.3577 1.26562 34.7407 1.60628 35.0073 2.03369C35.2782 2.4611 35.4136 2.93294 35.4136 3.44922H33.833C33.833 3.14453 33.7674 2.87581 33.6362 2.64307C33.5093 2.40609 33.3146 2.21989 33.0522 2.08447C32.7941 1.94906 32.4661 1.88135 32.0684 1.88135C31.6917 1.88135 31.3786 1.93848 31.1289 2.05273C30.8792 2.16699 30.693 2.32145 30.5703 2.51611C30.4476 2.71077 30.3862 2.93083 30.3862 3.17627C30.3862 3.34977 30.4264 3.50846 30.5068 3.65234C30.5872 3.79199 30.71 3.92318 30.875 4.0459C31.04 4.16439 31.2474 4.27653 31.4971 4.38232C31.7467 4.48812 32.0409 4.58968 32.3794 4.68701C32.8914 4.83936 33.3379 5.00863 33.7188 5.19482C34.0996 5.37679 34.417 5.58415 34.6709 5.81689C34.9248 6.04964 35.1152 6.31413 35.2422 6.61035C35.3691 6.90234 35.4326 7.23454 35.4326 7.60693C35.4326 7.99626 35.3543 8.34749 35.1978 8.66064C35.0412 8.96956 34.8169 9.23405 34.5249 9.4541C34.2371 9.66992 33.8901 9.83708 33.4839 9.95557C33.0819 10.0698 32.6333 10.127 32.1382 10.127C31.6938 10.127 31.2559 10.0677 30.8242 9.94922C30.3968 9.83073 30.0075 9.65088 29.6562 9.40967C29.305 9.16423 29.0257 8.85954 28.8184 8.49561C28.611 8.12744 28.5073 7.69792 28.5073 7.20703H30.1006C30.1006 7.50749 30.1514 7.76351 30.2529 7.9751C30.3587 8.18669 30.5047 8.36019 30.6909 8.49561C30.8771 8.62679 31.0929 8.72412 31.3384 8.7876C31.5881 8.85107 31.8547 8.88281 32.1382 8.88281C32.5106 8.88281 32.8216 8.82992 33.0713 8.72412C33.3252 8.61833 33.5156 8.47021 33.6426 8.27979C33.7695 8.08936 33.833 7.8693 33.833 7.61963Z" fill="#237FD2"/>
</svg>
